<mxfile host="app.diagrams.net" modified="2023-04-23T14:40:47.470Z" agent="Mozilla/5.0 (Windows NT 10.0; Win64; x64; rv:109.0) Gecko/20100101 Firefox/112.0" etag="EJeR_rBk4UCTWRLQM5rE" version="21.2.1" type="github">
  <diagram name="Page-1" id="_9EPurbuYxsysqRJuucd">
    <mxGraphModel dx="1083" dy="684" grid="1" gridSize="10" guides="1" tooltips="1" connect="1" arrows="1" fold="1" page="1" pageScale="1" pageWidth="827" pageHeight="1169" math="0" shadow="0">
      <root>
        <mxCell id="0" />
        <mxCell id="1" parent="0" />
        <mxCell id="lREUI8ds92l7sFufubKW-33" value="Back end code&lt;br&gt;&lt;div&gt;&lt;br&gt;&lt;/div&gt;&lt;div&gt;User facing code&lt;/div&gt;" style="text;html=1;strokeColor=none;fillColor=none;align=center;verticalAlign=middle;whiteSpace=wrap;rounded=0;fontStyle=1" vertex="1" parent="1">
          <mxGeometry x="599" y="320" width="200" height="40" as="geometry" />
        </mxCell>
        <mxCell id="lREUI8ds92l7sFufubKW-26" style="edgeStyle=orthogonalEdgeStyle;rounded=0;orthogonalLoop=1;jettySize=auto;html=1;entryX=0.5;entryY=0;entryDx=0;entryDy=0;" edge="1" parent="1" source="lREUI8ds92l7sFufubKW-1" target="lREUI8ds92l7sFufubKW-5">
          <mxGeometry relative="1" as="geometry">
            <Array as="points">
              <mxPoint x="399" y="420" />
              <mxPoint x="399" y="380" />
              <mxPoint x="659" y="380" />
            </Array>
          </mxGeometry>
        </mxCell>
        <mxCell id="lREUI8ds92l7sFufubKW-50" value="" style="edgeStyle=orthogonalEdgeStyle;rounded=0;orthogonalLoop=1;jettySize=auto;html=1;" edge="1" parent="1" source="lREUI8ds92l7sFufubKW-1" target="lREUI8ds92l7sFufubKW-36">
          <mxGeometry relative="1" as="geometry">
            <Array as="points">
              <mxPoint x="299" y="480" />
              <mxPoint x="360" y="480" />
            </Array>
          </mxGeometry>
        </mxCell>
        <mxCell id="lREUI8ds92l7sFufubKW-1" value="&lt;div&gt;ivp.py&lt;/div&gt;" style="rounded=1;whiteSpace=wrap;html=1;fontStyle=1;fillColor=#F8CECC;" vertex="1" parent="1">
          <mxGeometry x="239" y="400" width="120" height="40" as="geometry" />
        </mxCell>
        <mxCell id="lREUI8ds92l7sFufubKW-38" style="edgeStyle=orthogonalEdgeStyle;rounded=0;orthogonalLoop=1;jettySize=auto;html=1;entryX=0.5;entryY=0;entryDx=0;entryDy=0;" edge="1" parent="1" source="lREUI8ds92l7sFufubKW-4" target="lREUI8ds92l7sFufubKW-1">
          <mxGeometry relative="1" as="geometry">
            <Array as="points">
              <mxPoint x="299" y="260" />
            </Array>
          </mxGeometry>
        </mxCell>
        <mxCell id="lREUI8ds92l7sFufubKW-39" style="edgeStyle=orthogonalEdgeStyle;rounded=0;orthogonalLoop=1;jettySize=auto;html=1;entryX=0.5;entryY=0;entryDx=0;entryDy=0;" edge="1" parent="1" source="lREUI8ds92l7sFufubKW-4" target="lREUI8ds92l7sFufubKW-15">
          <mxGeometry relative="1" as="geometry">
            <Array as="points">
              <mxPoint x="479" y="260" />
            </Array>
          </mxGeometry>
        </mxCell>
        <mxCell id="lREUI8ds92l7sFufubKW-4" value="_ode_solvers.py" style="rounded=1;whiteSpace=wrap;html=1;fontStyle=1;fillColor=#E6D0DE;" vertex="1" parent="1">
          <mxGeometry x="330" y="240" width="120" height="40" as="geometry" />
        </mxCell>
        <mxCell id="lREUI8ds92l7sFufubKW-52" value="" style="edgeStyle=orthogonalEdgeStyle;rounded=0;orthogonalLoop=1;jettySize=auto;html=1;" edge="1" parent="1" source="lREUI8ds92l7sFufubKW-5" target="lREUI8ds92l7sFufubKW-36">
          <mxGeometry relative="1" as="geometry">
            <Array as="points">
              <mxPoint x="659" y="480" />
              <mxPoint x="360" y="480" />
            </Array>
          </mxGeometry>
        </mxCell>
        <mxCell id="lREUI8ds92l7sFufubKW-5" value="continuation.py" style="rounded=1;whiteSpace=wrap;html=1;fontStyle=1;fillColor=#F8CECC;" vertex="1" parent="1">
          <mxGeometry x="599" y="400" width="120" height="40" as="geometry" />
        </mxCell>
        <mxCell id="lREUI8ds92l7sFufubKW-25" style="edgeStyle=orthogonalEdgeStyle;rounded=0;orthogonalLoop=1;jettySize=auto;html=1;entryX=0;entryY=0.5;entryDx=0;entryDy=0;fillColor=#F8CECC;" edge="1" parent="1" source="lREUI8ds92l7sFufubKW-15" target="lREUI8ds92l7sFufubKW-5">
          <mxGeometry relative="1" as="geometry" />
        </mxCell>
        <mxCell id="lREUI8ds92l7sFufubKW-51" value="" style="edgeStyle=orthogonalEdgeStyle;rounded=0;orthogonalLoop=1;jettySize=auto;html=1;" edge="1" parent="1" source="lREUI8ds92l7sFufubKW-15" target="lREUI8ds92l7sFufubKW-36">
          <mxGeometry relative="1" as="geometry">
            <Array as="points">
              <mxPoint x="479" y="480" />
              <mxPoint x="360" y="480" />
            </Array>
          </mxGeometry>
        </mxCell>
        <mxCell id="lREUI8ds92l7sFufubKW-15" value="&lt;div&gt;ivp.py&lt;/div&gt;" style="rounded=1;whiteSpace=wrap;html=1;fontStyle=1;fillColor=#F8CECC;" vertex="1" parent="1">
          <mxGeometry x="419" y="400" width="120" height="40" as="geometry" />
        </mxCell>
        <mxCell id="lREUI8ds92l7sFufubKW-40" style="edgeStyle=orthogonalEdgeStyle;rounded=0;orthogonalLoop=1;jettySize=auto;html=1;entryX=0.5;entryY=0;entryDx=0;entryDy=0;exitX=0.5;exitY=1;exitDx=0;exitDy=0;" edge="1" parent="1" source="lREUI8ds92l7sFufubKW-30" target="lREUI8ds92l7sFufubKW-15">
          <mxGeometry relative="1" as="geometry">
            <mxPoint x="480" y="390" as="targetPoint" />
            <Array as="points">
              <mxPoint x="580" y="310" />
              <mxPoint x="479" y="310" />
            </Array>
          </mxGeometry>
        </mxCell>
        <mxCell id="lREUI8ds92l7sFufubKW-30" value="&lt;div&gt;_pde_solvers.py&lt;/div&gt;" style="rounded=1;whiteSpace=wrap;html=1;fontStyle=1;fillColor=#E6D0DE;" vertex="1" parent="1">
          <mxGeometry x="519.5" y="240" width="120" height="40" as="geometry" />
        </mxCell>
        <mxCell id="lREUI8ds92l7sFufubKW-35" value="" style="endArrow=none;dashed=1;html=1;rounded=0;strokeWidth=2;" edge="1" parent="1">
          <mxGeometry width="50" height="50" relative="1" as="geometry">
            <mxPoint x="200" y="339" as="sourcePoint" />
            <mxPoint x="760" y="339.38" as="targetPoint" />
          </mxGeometry>
        </mxCell>
        <mxCell id="lREUI8ds92l7sFufubKW-55" value="" style="edgeStyle=orthogonalEdgeStyle;rounded=0;orthogonalLoop=1;jettySize=auto;html=1;" edge="1" parent="1" source="lREUI8ds92l7sFufubKW-36" target="lREUI8ds92l7sFufubKW-53">
          <mxGeometry relative="1" as="geometry" />
        </mxCell>
        <mxCell id="lREUI8ds92l7sFufubKW-36" value="&lt;b&gt;Numerical solutions&lt;br&gt;&lt;/b&gt;" style="rounded=0;whiteSpace=wrap;html=1;fillColor=#FFFFCC;" vertex="1" parent="1">
          <mxGeometry x="239" y="520" width="241" height="40" as="geometry" />
        </mxCell>
        <mxCell id="lREUI8ds92l7sFufubKW-49" value="" style="edgeStyle=orthogonalEdgeStyle;rounded=0;orthogonalLoop=1;jettySize=auto;html=1;" edge="1" parent="1" source="lREUI8ds92l7sFufubKW-48" target="lREUI8ds92l7sFufubKW-30">
          <mxGeometry relative="1" as="geometry" />
        </mxCell>
        <mxCell id="lREUI8ds92l7sFufubKW-48" value="_bvp_base_class.py" style="rounded=1;whiteSpace=wrap;html=1;fontStyle=1;fillColor=#D5E8D4;" vertex="1" parent="1">
          <mxGeometry x="520" y="160" width="120" height="40" as="geometry" />
        </mxCell>
        <mxCell id="lREUI8ds92l7sFufubKW-57" value="" style="edgeStyle=orthogonalEdgeStyle;rounded=0;orthogonalLoop=1;jettySize=auto;html=1;" edge="1" parent="1" source="lREUI8ds92l7sFufubKW-53" target="lREUI8ds92l7sFufubKW-56">
          <mxGeometry relative="1" as="geometry" />
        </mxCell>
        <mxCell id="lREUI8ds92l7sFufubKW-53" value="&lt;div&gt;plotting.py&lt;/div&gt;" style="rounded=1;whiteSpace=wrap;html=1;fontStyle=1;fillColor=#FFCE9F;" vertex="1" parent="1">
          <mxGeometry x="539" y="520" width="120" height="40" as="geometry" />
        </mxCell>
        <mxCell id="lREUI8ds92l7sFufubKW-56" value="&lt;b&gt;Graphical solutions&lt;br&gt;&lt;/b&gt;" style="rounded=0;whiteSpace=wrap;html=1;fillColor=#FFFFCC;" vertex="1" parent="1">
          <mxGeometry x="480" y="600" width="241" height="40" as="geometry" />
        </mxCell>
      </root>
    </mxGraphModel>
  </diagram>
</mxfile>
